#!OML:ASF F:\VICON\USERDATA\INSTALL\rory3\rory3.ASF
:FULLY-SPECIFIED
:DEGREES
1638
root 5.89848 17.4934 0.103454 14.0297 -45.0936 4.96293
lowerback 27.035 1.82992 -4.03332
upperback 9.17187 0.903152 -0.505986
thorax -4.78833 0.254716 1.4988
lowerneck 1.91504 -1.99525 -7.55394
upperneck 2.13337 -2.88201 7.54223
head 0.586334 -1.47783 3.80025
rclavicle 3.97569e-015 -3.81667e-014
rhumerus -10.9942 13.2004 -76.5869
rradius 90.4805
rwrist 34.57
rhand -43.9244 -5.2006
rfingers 7.12502
rthumb -16.7484 -34.4982
lclavicle 3.97569e-015 -3.81667e-014
lhumerus -24.1844 -35.7158 87.5367
lradius 68.3823
lwrist -15.196
lhand -6.40701 32.7637
lfingers 7.12502
lthumb 19.4411 61.8118
rfemur -48.3717 1.88409 1.8067
rtibia 52.4269
rfoot -18.5013 -16.3257
rtoes -9.61684
lfemur -47.9208 4.62665 -16.0302
ltibia 49.3836
lfoot -15.5479 9.79091
ltoes -5.3844
1639
root 5.90749 17.4783 0.0181359 14.6672 -45.0477 5.46743
lowerback 27.3572 1.80153 -4.25001
upperback 9.28869 0.78977 -0.530485
thorax -4.80665 0.194706 1.62843
lowerneck 2.01709 -1.92126 -7.36205
upperneck 2.71932 -2.80614 7.26806
head 0.742103 -1.4417 3.66578
rclavicle 1.63003e-014 4.37326e-015
rhumerus -11.1995 13.9536 -76.7097
rradius 90.0182
rwrist 34.8564
rhand -42.9828 -4.61555
rfingers 7.12502
rthumb -15.8418 -33.9874
lclavicle 1.63003e-014 4.37326e-015
lhumerus -24.4035 -36.4674 87.4473
lradius 69.6816
lwrist -13.8906
lhand -5.99383 33.275
lfingers 7.12502
lthumb 19.8383 62.2825
rfemur -49.7334 1.25595 1.66601
rtibia 52.477
rfoot -18.5344 -16.3168
rtoes -8.30135
lfemur -49.2212 4.27048 -16.2019
ltibia 49.1987
lfoot -15.0075 9.22624
ltoes -6.08179
1640
root 5.91398 17.4758 -0.0579805 15.118 -45.1367 5.88616
lowerback 27.8408 1.83354 -4.4355
upperback 9.53426 0.74713 -0.518274
thorax -4.76047 0.161679 1.75891
lowerneck 2.04993 -1.87031 -7.54199
upperneck 3.23552 -2.76522 7.3166
head 0.903755 -1.42463 3.71803
rclavicle -5.36719e-015 -7.21588e-014
rhumerus -11.3554 14.7874 -76.7588
rradius 89.4489
rwrist 34.7872
rhand -41.8588 -3.61321
rfingers 7.12502
rthumb -14.7591 -33.0677
lclavicle -5.36719e-015 -7.21588e-014
lhumerus -24.2909 -36.7159 87.1578
lradius 70.895
lwrist -14.1319
lhand -5.16135 32.9071
lfingers 7.12502
lthumb 20.6384 61.8298
rfemur -50.7676 0.95245 1.48869
rtibia 52.4396
rfoot -18.5533 -16.3174
rtoes -7.4849
lfemur -50.1066 3.93057 -16.2782
ltibia 48.9091
lfoot -14.8572 8.74339
ltoes -6.11439
1641
root 5.92145 17.4838 -0.121565 15.483 -45.2246 6.14664
lowerback 28.4179 1.8451 -4.33305
upperback 9.94794 0.73981 -0.527344
thorax -4.56839 0.140434 1.69033
lowerneck 1.79442 -1.85405 -7.82785
upperneck 3.74363 -2.75901 7.59003
head 1.12461 -1.42011 3.86888
rclavicle -7.21588e-014 1.78906e-015
rhumerus -11.2829 15.4944 -76.8494
rradius 88.6128
rwrist 34.7455
rhand -40.9501 -2.49807
rfingers 7.12502
rthumb -13.8835 -32.0146
lclavicle -7.21588e-014 1.78906e-015
lhumerus -24.1058 -36.7433 87.1424
lradius 71.9835
lwrist -14.7675
lhand -5.99837 32.9189
lfingers 7.12502
lthumb 19.8339 61.9269
rfemur -51.4972 0.785143 1.38972
rtibia 52.3141
rfoot -18.5357 -16.3664
rtoes -7.24724
lfemur -50.6784 3.51514 -16.2071
ltibia 48.5597
lfoot -14.7233 8.48137
ltoes -5.50447
1642
root 5.92537 17.4902 -0.180434 15.8454 -45.3532 6.43067
lowerback 28.9368 1.76501 -4.59932
upperback 10.1614 0.548697 -0.282147
thorax -4.56078 0.0309431 2.17234
lowerneck 2.30851 -1.58026 -8.80995
upperneck 4.01843 -2.45894 7.74202
head 1.11626 -1.29449 4.12638
rclavicle -4.8901e-014 7.15625e-015
rhumerus -11.3204 17.1209 -76.6457
rradius 87.5224
rwrist 35.1639
rhand -39.9427 -2.5419
rfingers 7.12502
rthumb -12.9126 -32.1224
lclavicle -4.8901e-014 7.15625e-015
lhumerus -24.3601 -36.5371 87.373
lradius 73.2048
lwrist -14.6295
lhand -7.62287 33.7212
lfingers 7.12502
lthumb 18.2717 62.8831
rfemur -52.1935 0.599117 1.2737
rtibia 52.0964
rfoot -18.4156 -16.3667
rtoes -7.14563
lfemur -51.2219 3.13403 -16.1466
ltibia 48.1626
lfoot -14.6376 8.18373
ltoes -4.06766
1643
root 5.92595 17.4896 -0.238663 16.2447 -45.5661 6.73433
lowerback 29.5508 1.76564 -4.33752
upperback 10.3447 0.553269 -0.531659
thorax -4.63755 0.0344879 1.74284
lowerneck 2.7716 -1.52571 -8.56415
upperneck 4.26066 -2.43153 7.83392
head 1.10657 -1.28675 4.11434
rclavicle -1.19271e-015 -1.33186e-014
rhumerus -11.7443 17.7591 -77.1367
rradius 86.3884
rwrist 35.7643
rhand -38.1348 -4.36361
rfingers 7.12502
rthumb -11.1693 -34.0463
lclavicle -1.19271e-015 -1.33186e-014
lhumerus -24.6861 -37.4075 87.0346
lradius 74.596
lwrist -14.4658
lhand -8.57214 34.4564
lfingers 7.12502
lthumb 17.3583 63.7013
rfemur -52.9135 0.617523 0.997144
rtibia 51.8053
rfoot -18.2831 -16.2114
rtoes -6.68675
lfemur -51.82 2.8379 -16.1092
ltibia 47.7669
lfoot -14.455 7.86698
ltoes -3.17767
1644
root 5.92992 17.4928 -0.292323 16.5408 -45.7256 7.08015
lowerback 30.3888 1.90665 -4.35725
upperback 10.5135 0.662493 -0.539125
thorax -4.83715 0.0815249 1.70639
lowerneck 3.03646 -1.54144 -8.27879
upperneck 4.57284 -2.47667 7.72746
head 1.15802 -1.31169 4.02145
rclavicle -2.62396e-014 1.68967e-014
rhumerus -12.098 18.5557 -77.2317
rradius 85.067
rwrist 35.9998
rhand -36.2504 -5.70593
rfingers 7.12502
rthumb -9.35142 -35.4785
lclavicle -2.62396e-014 1.68967e-014
lhumerus -24.8842 -38.0433 87.0235
lradius 75.8477
lwrist -14.4857
lhand -8.86421 34.631
lfingers 7.12502
lthumb 17.0771 63.9004
rfemur -53.4522 0.677052 0.622646
rtibia 51.4484
rfoot -18.2206 -16.0002
rtoes -6.29969
lfemur -52.3241 2.41954 -16.067
ltibia 47.3784
lfoot -14.3604 7.62199
ltoes -2.49733
1645
root 5.93634 17.5038 -0.339863 16.9559 -45.8365 7.23326
lowerback 30.7037 1.72141 -3.67643
upperback 11.0582 0.544531 -1.03932
thorax -4.35203 0.0210305 0.798583
lowerneck 2.82825 -1.57335 -7.30808
upperneck 4.86569 -2.501 7.72756
head 1.27507 -1.3043 3.8274
rclavicle -3.53837e-014 6.34123e-014
rhumerus -11.7375 19.1326 -77.9611
rradius 83.3897
rwrist 36.0742
rhand -34.2593 -5.55015
rfingers 7.12502
rthumb -7.42984 -35.3997
lclavicle -3.53837e-014 6.34123e-014
lhumerus -24.3721 -38.8264 85.7463
lradius 77.0575
lwrist -14.4351
lhand -9.94407 34.7034
lfingers 7.12502
lthumb 16.0375 64.0596
rfemur -53.8799 0.683076 0.412745
rtibia 51.001
rfoot -18.2119 -15.7193
rtoes -6.15778
lfemur -52.7707 1.92934 -15.8473
ltibia 46.9875
lfoot -14.3595 7.52028
ltoes -2.06297
1646
root 5.94013 17.5113 -0.38408 17.5377 -45.9064 7.24458
lowerback 31.2398 1.8549 -3.61368
upperback 11.4515 0.694064 -0.89253
thorax -4.15267 0.0745136 0.872879
lowerneck 2.44089 -1.71203 -6.88752
upperneck 5.3529 -2.66834 7.46399
head 1.50408 -1.37438 3.6489
rclavicle 2.10712e-014 -1.13307e-014
rhumerus -11.4529 20.1092 -77.719
rradius 81.6493
rwrist 35.946
rhand -31.9825 -5.56818
rfingers 7.12502
rthumb -5.23182 -35.4836
lclavicle 2.10712e-014 -1.13307e-014
lhumerus -24.0442 -39.3969 85.5178
lradius 78.0708
lwrist -14.614
lhand -11.5031 35.1011
lfingers 7.12502
lthumb 14.5358 64.5718
rfemur -54.2514 0.698939 0.283497
rtibia 50.33
rfoot -18.1515 -15.4328
rtoes -5.5604
lfemur -53.3015 1.45531 -15.5
ltibia 46.5881
lfoot -14.2614 7.47203
ltoes -1.23077
1647
root 5.94119 17.5234 -0.425049 17.8959 -46.0815 7.49547
lowerback 31.7815 1.7084 -3.71691
upperback 11.6847 0.443723 -0.878082
thorax -4.11746 -0.0580251 1.02972
lowerneck 2.6498 -1.45352 -7.24919
upperneck 5.72016 -2.3632 7.54262
head 1.57028 -1.23429 3.75335
rclavicle 7.15625e-014 5.96354e-016
rhumerus -11.2687 22.0627 -77.7087
rradius 79.7847
rwrist 35.8346
rhand -29.3561 -6.20005
rfingers 7.12502
rthumb -2.69557 -36.1628
lclavicle 7.15625e-014 5.96354e-016
lhumerus -24.4261 -38.9003 85.591
lradius 79.0423
lwrist -15.2339
lhand -12.5965 35.2391
lfingers 7.12502
lthumb 13.4821 64.7827
rfemur -54.6791 0.789279 -0.0662113
rtibia 49.9276
rfoot -18.3461 -15.1416
rtoes -4.85934
lfemur -53.7482 1.00581 -15.347
ltibia 46.2256
lfoot -14.234 7.44734
ltoes -0.350215
